Patient4_TMGait_0pt6_01_left_25_GRF.mot
version=1
nRows=64
nColumns=19
inDegrees=no
endheader
time	F1x	F1y	F1z	M1x	M1y	M1z	F2x	F2y	F2z	M2x	M2y	M2z	EC1x	EC1y	EC1z	EC2x	EC2y	EC2z
30.42	5.1268	13.7701	3.0061	-4.0032	-1.9971	17.2806	-28.8591	698.0359	-41.5684	262.729	50.6956	668.602	-0.0592	0.0182	-0.0073	-0.0462	0.0165	0.9585
30.4321	3.3947	10.0531	2.1057	-3.017	-1.3992	12.5438	-24.5173	704.9885	-42.9011	264.4267	50.2494	673.6583	-0.0592	0.0182	-0.0073	-0.0462	0.0165	0.9585
30.4443	1.9147	6.9424	1.3177	-2.1847	-0.88837	8.5411	-20.1735	713.7562	-44.0759	266.743	49.6062	679.5204	-0.0592	0.0182	-0.0073	-0.0462	0.0165	0.9585
30.4564	0.77048	4.6047	0.70589	-1.5579	-0.50078	5.5024	-16.0561	724.2484	-45.1314	269.6851	48.8882	686.1673	-0.0592	0.0182	-0.0073	-0.0462	0.0165	0.9585
30.4686	-0.043155	3.0227	0.27538	-1.1366	-0.23795	3.4124	-12.2579	736.1297	-46.1201	273.1482	48.1829	693.43	-0.0592	0.0182	-0.0073	-0.0462	0.0165	0.9585
30.4807	-0.57418	2.0719	0.0082901	-0.88782	-0.08976	2.1211	-8.7908	748.7943	-47.1152	276.911	47.5672	700.9294	-0.0592	0.0182	-0.0073	-0.0462	0.0165	0.9585
30.4929	-0.89313	1.5795	-0.13371	-0.76294	-0.03542	1.4238	-5.639	761.4078	-48.1483	280.6618	47.0637	708.0877	-0.0592	0.0182	-0.0073	-0.0462	0.0165	0.9585
30.505	-1.0689	1.3496	-0.18041	-0.70219	-0.059516	1.0867	-2.7901	773.0083	-49.2393	284.0361	46.6856	714.2024	-0.0592	0.0182	-0.0073	-0.0462	0.0165	0.9585
30.5171	-1.1604	1.2026	-0.16685	-0.64622	-0.13739	0.89827	-0.26383	782.6389	-50.3759	286.6731	46.4282	718.5559	-0.0592	0.0182	-0.0073	-0.0462	0.0165	0.9585
30.5293	-1.2208	0.96213	-0.11104	-0.53422	-0.25706	0.64473	1.9078	789.5054	-51.5329	288.2777	46.2813	720.5533	-0.0592	0.0182	-0.0073	-0.0462	0.0165	0.9585
30.5414	-1.2825	0.47346	-0.036864	-0.31124	-0.3964	0.14131	3.6939	793.1079	-52.663	288.6675	46.2204	719.8494	-0.0592	0.0182	-0.0073	-0.0462	0.0165	0.9585
30.5536	-1.3508	-0.40839	0.048452	0.075532	-0.54002	-0.77799	5.0647	793.2192	-53.718	287.769	46.2164	716.3079	-0.0592	0.0182	-0.0073	-0.0462	0.0165	0.9585
30.5657	-1.398	-1.7707	0.12102	0.65855	-0.65249	-2.2145	6.0087	789.9034	-54.672	285.6174	46.2564	710.0226	-0.0592	0.0182	-0.0073	-0.0462	0.0165	0.9585
30.5779	-1.3693	-3.6264	0.17642	1.4399	-0.70732	-4.1866	6.5797	783.4917	-55.5157	282.3498	46.3156	701.2688	-0.0592	0.0182	-0.0073	-0.0462	0.0165	0.9585
30.59	-1.1733	-5.8533	0.1886	2.3664	-0.64314	-6.5661	6.8984	774.553	-56.2888	278.1918	46.3876	690.5026	-0.0592	0.0182	-0.0073	-0.0462	0.0165	0.9585
30.6021	-0.69685	-8.1251	0.14209	3.3036	-0.39792	-8.9988	7.1646	763.8147	-57.0243	273.4288	46.4336	678.2911	-0.0592	0.0182	-0.0073	-0.0462	0.0165	0.9585
30.6143	0.20088	-9.8267	-0.0052898	3.9999	0.12511	-10.8218	7.5934	752.0384	-57.7908	268.3595	46.4384	665.2222	-0.0592	0.0182	-0.0073	-0.0462	0.0165	0.9585
30.6264	1.6557	-9.9665	-0.28631	4.0513	1.0166	-10.9572	8.4147	739.9576	-58.6159	263.2697	46.3475	651.8595	-0.0592	0.0182	-0.0073	-0.0462	0.0165	0.9585
30.6386	3.7734	-7.1309	-0.75048	2.8804	2.3746	-7.8733	9.8288	728.1741	-59.5286	258.3893	46.1207	638.6597	-0.0592	0.0182	-0.0073	-0.0462	0.0165	0.9585
30.6507	6.5713	0.51803	-1.4298	-0.25975	4.2443	0.43655	11.9662	717.0512	-60.4896	253.8578	45.6823	625.8944	-0.0592	0.0182	-0.0073	-0.0462	0.0165	0.9585
30.6629	9.9099	15.1284	-2.3453	-6.2402	6.5881	16.3175	14.87	706.6641	-61.418	249.704	44.96	613.6247	-0.0592	0.0182	-0.0073	-0.0462	0.0165	0.9585
30.675	13.3775	38.8494	-3.467	-15.9301	9.1996	42.1296	18.4753	696.7657	-62.1403	245.8397	43.8468	601.6759	-0.0592	0.0182	-0.0073	-0.0462	0.0165	0.9585
30.6871	16.1844	73.2808	-4.6913	-29.975	11.6352	79.6405	22.6134	686.7361	-62.4282	242.0434	42.2336	589.5981	-0.0592	0.0182	-0.0073	-0.0462	0.0165	0.9585
30.6993	17.0555	118.6129	-5.7815	-48.4449	13.1161	129.085	27.0372	675.5225	-62.0085	237.9421	40.0007	576.6032	-0.0592	0.0182	-0.0073	-0.0462	0.0165	0.9585
30.7114	14.4255	172.631	-6.3613	-70.4248	12.5972	188.057	31.4664	661.6569	-60.6175	233.0122	37.0499	561.5766	-0.0592	0.0182	-0.0073	-0.0462	0.0165	0.9585
30.7236	7.4853	230.1783	-5.8079	-93.7922	9.0843	250.9238	35.6044	643.3767	-58.0535	226.623	33.3352	543.1534	-0.0592	0.0182	-0.0073	-0.0462	0.0165	0.9585
30.7357	-2.0981	284.7226	-3.0908	-115.8428	2.1638	310.4775	39.1585	618.978	-54.2557	218.1592	28.9242	519.9981	-0.0592	0.0182	-0.0073	-0.0462	0.0165	0.9585
30.7479	-12.0912	331.6147	1.7769	-134.6886	-7.177	361.3792	41.8606	587.2708	-49.3376	207.1729	24.0097	491.1872	-0.0592	0.0182	-0.0073	-0.0462	0.0165	0.9585
30.76	-21.0086	370.1108	7.898	-150.0445	-17.3714	402.5568	43.4995	547.8681	-43.6345	193.4873	18.9249	456.441	-0.0592	0.0182	-0.0073	-0.0462	0.0165	0.9585
30.7721	-28.1809	402.0298	14.5347	-162.6926	-27.3137	435.9657	43.9579	501.2368	-37.5835	177.2285	14.0343	416.1596	-0.0592	0.0182	-0.0073	-0.0462	0.0165	0.9585
30.7843	-33.4094	430.2522	20.6906	-173.8618	-35.8781	464.7147	43.1541	448.6417	-31.5539	158.813	9.6299	371.3855	-0.0592	0.0182	-0.0073	-0.0462	0.0165	0.9585
30.7964	-36.8869	457.5148	25.9764	-184.6981	-42.7073	491.8754	41.0518	391.9546	-25.7905	138.8923	5.8977	323.6475	-0.0592	0.0182	-0.0073	-0.0462	0.0165	0.9585
30.8086	-38.8375	485.8353	29.9182	-196.0574	-47.4298	519.565	37.6841	333.5604	-20.4374	118.3086	2.9269	274.8975	-0.0592	0.0182	-0.0073	-0.0462	0.0165	0.9585
30.8207	-39.6464	516.519	32.6991	-208.4512	-50.3847	549.2293	33.2237	276.0539	-15.6017	97.9875	0.73824	227.218	-0.0592	0.0182	-0.0073	-0.0462	0.0165	0.9585
30.8329	-39.5552	550.0998	34.4226	-222.0752	-51.8209	581.4357	27.9885	221.9709	-11.3795	78.8363	-0.70405	182.6152	-0.0592	0.0182	-0.0073	-0.0462	0.0165	0.9585
30.845	-38.8764	586.4065	35.6061	-236.8002	-52.4002	616.103	22.4355	173.4125	-7.8797	61.6077	-1.4748	142.7192	-0.0592	0.0182	-0.0073	-0.0462	0.0165	0.9585
30.8571	-37.8434	624.3746	36.5636	-252.1573	-52.5695	652.1196	17.045	131.7212	-5.1682	46.7865	-1.6925	108.5412	-0.0592	0.0182	-0.0073	-0.0462	0.0165	0.9585
30.8693	-36.7665	662.3213	37.7607	-267.4169	-52.9461	687.8546	12.1877	97.3355	-3.2331	34.5386	-1.4985	80.3789	-0.0592	0.0182	-0.0073	-0.0462	0.0165	0.9585
30.8814	-35.8116	698.462	39.3767	-281.8357	-53.8079	721.5012	8.0729	69.9037	-1.9615	24.754	-1.0553	57.8999	-0.0592	0.0182	-0.0073	-0.0462	0.0165	0.9585
30.8936	-35.0651	731.4375	41.3744	-294.8557	-55.1619	751.7429	4.7343	48.5853	-1.1811	17.1496	-0.50982	40.4148	-0.0592	0.0182	-0.0073	-0.0462	0.0165	0.9585
30.9057	-34.4299	760.258	43.4848	-306.0921	-56.7127	777.5978	2.1449	32.3431	-0.73263	11.3679	0.026374	27.0717	-0.0592	0.0182	-0.0073	-0.0462	0.0165	0.9585
30.9179	-33.8659	784.1582	45.4701	-315.2486	-58.1964	798.3518	0.24728	20.2149	-0.47228	7.0679	0.46076	17.1075	-0.0592	0.0182	-0.0073	-0.0462	0.0165	0.9585
30.93	-33.3059	802.4627	47.2476	-322.0705	-59.4843	813.3647	-0.97701	11.375	-0.31291	3.9555	0.73749	9.8339	-0.0592	0.0182	-0.0073	-0.0462	0.0165	0.9585
30.9421	-32.6878	814.7402	48.794	-326.3858	-60.5142	822.2769	-1.5896	5.2266	-0.20858	1.8097	0.84372	4.7753	-0.0592	0.0182	-0.0073	-0.0462	0.0165	0.9585
30.9543	-31.9625	820.8146	50.1943	-328.1236	-61.3358	824.9698	-1.7087	1.2836	-0.15197	0.45192	0.82148	1.5122	-0.0592	0.0182	-0.0073	-0.0462	0.0165	0.9585
30.9664	-31.0732	820.9346	51.4204	-327.3868	-61.8984	821.7253	-1.5668	-0.92219	-0.12691	-0.29133	0.73554	-0.32262	-0.0592	0.0182	-0.0073	-0.0462	0.0165	0.9585
30.9786	-29.9317	815.7716	52.5027	-324.4506	-62.1985	813.2529	-1.2815	-1.9003	-0.13347	-0.60183	0.63368	-1.1657	-0.0592	0.0182	-0.0073	-0.0462	0.0165	0.9585
30.9907	-28.4503	806.3671	53.3641	-319.7484	-62.1258	800.5756	-0.98579	-2.0729	-0.15793	-0.63309	0.54863	-1.3416	-0.0592	0.0182	-0.0073	-0.0462	0.0165	0.9585
31.0029	-26.5772	794.0102	54.0369	-313.8088	-61.6845	784.9286	-0.7103	-1.7988	-0.19426	-0.51279	0.48985	-1.1568	-0.0592	0.0182	-0.0073	-0.0462	0.0165	0.9585
31.015	-24.2653	780.0251	54.4981	-307.1782	-60.8359	767.5494	-0.50187	-1.3084	-0.2255	-0.32558	0.45431	-0.77838	-0.0592	0.0182	-0.0073	-0.0462	0.0165	0.9585
31.0271	-21.5448	765.644	54.8318	-300.3606	-59.6721	749.6039	-0.3469	-0.77905	-0.25048	-0.13152	0.4349	-0.35676	-0.0592	0.0182	-0.0073	-0.0462	0.0165	0.9585
31.0393	-18.4944	751.919	55.0662	-293.7915	-58.2484	732.09	-0.24704	-0.27824	-0.25785	0.044562	0.41895	0.070326	-0.0592	0.0182	-0.0073	-0.0462	0.0165	0.9585
31.0514	-15.1971	739.6646	55.2758	-287.8107	-56.67	715.8054	-0.1844	0.14387	-0.25167	0.18768	0.4025	0.4501	-0.0592	0.0182	-0.0073	-0.0462	0.0165	0.9585
31.0636	-11.7339	729.4431	55.465	-282.6607	-54.9789	701.2891	-0.15395	0.48939	-0.23281	0.30018	0.38139	0.78389	-0.0592	0.0182	-0.0073	-0.0462	0.0165	0.9585
31.0757	-8.187	721.5551	55.6387	-278.4839	-53.2215	688.8347	-0.14625	0.76442	-0.21306	0.38693	0.36133	1.0728	-0.0592	0.0182	-0.0073	-0.0462	0.0165	0.9585
31.0879	-4.596	716.0922	55.7581	-275.3388	-51.3882	678.5377	-0.15716	0.9794	-0.19634	0.45428	0.34309	1.3193	-0.0592	0.0182	-0.0073	-0.0462	0.0165	0.9585
31.1	-1.0013	712.9976	55.8097	-273.2111	-49.489	670.3447	-0.18692	1.142	-0.19035	0.50639	0.33839	1.5286	-0.0592	0.0182	-0.0073	-0.0462	0.0165	0.9585
31.1121	2.5604	712.0731	55.7893	-272.0254	-47.5417	664.0849	-0.22591	1.2436	-0.19949	0.5404	0.35325	1.675	-0.0592	0.0182	-0.0073	-0.0462	0.0165	0.9585
31.1243	6.0952	713.0217	55.7072	-271.6601	-45.566	659.5089	-0.28276	1.2798	-0.21666	0.5498	0.38525	1.7455	-0.0592	0.0182	-0.0073	-0.0462	0.0165	0.9585
31.1364	9.6254	715.4946	55.5907	-271.9685	-43.5849	656.3182	-0.34713	1.2074	-0.24505	0.51581	0.43436	1.6759	-0.0592	0.0182	-0.0073	-0.0462	0.0165	0.9585
31.1486	13.193	719.159	55.4503	-272.8046	-41.5934	654.2112	-0.43349	0.98156	-0.28238	0.41696	0.50228	1.4273	-0.0592	0.0182	-0.0073	-0.0462	0.0165	0.9585
31.1607	16.8479	723.7503	55.3102	-274.041	-39.5913	652.9707	-0.51998	0.51351	-0.33425	0.22028	0.58935	0.89102	-0.0592	0.0182	-0.0073	-0.0462	0.0165	0.9585
31.1729	20.6289	729.0545	55.1797	-275.563	-37.5613	652.4189	-0.62063	-0.26276	-0.3929	-0.10266	0.69027	0.00069167	-0.0592	0.0182	-0.0073	-0.0462	0.0165	0.9585
31.185	24.5352	734.8985	55.1159	-277.2638	-35.5425	652.4357	-0.69038	-1.4167	-0.45262	-0.57877	0.78346	-1.3283	-0.0592	0.0182	-0.0073	-0.0462	0.0165	0.9585
